PathFileType   4   (X/Y/Z)
DataRate  CameraRate  NumFrames  NumMarkers  Units  OrigDataRate  OrigDataStartFrame  OrigNumFrames  
  120.0      120.0        4         39         mm      120.0          151        240
Frame#      Time	midhip		hip_r		hip_l		knee_r		knee_l		ankle_r		ankle_l		midasis		asis_r		asis_l		psis_r		psis_l		epicondLat_r		epicondLat_l		epicondMed_r		epicondMed_l		malleolusLat_r		malleolusLat_l		malleolusMedv_r		malleolusMedv_l		heel_r		heel_l		sternalnotch		xyphoidprocess		neck		subclavicle_r		subclavicle_l		toe_r		toe_l		thighwand_r		thighwand_l		upperleg1_r		upperleg1_l		upperleg2_r		upperleg2_l		shankwand_r		shankwand_l		lowerleg1_r		lowerleg1_l		
              X1          Y1          Z1          X2          Y2          Z2          X3          Y3          Z3          X4          Y4          Z4          X5          Y5          Z5          X6          Y6          Z6          X7          Y7          Z7          X8          Y8          Z8          X9          Y9          Z9          X10          Y10          Z10          X11          Y11          Z11          X12          Y12          Z12          X13          Y13          Z13          X14          Y14          Z14          X15          Y15          Z15          X16          Y16          Z16          X17          Y17          Z17          X18          Y18          Z18          X19          Y19          Z19          X20          Y20          Z20          X21          Y21          Z21          X22          Y22          Z22          X23          Y23          Z23          X24          Y24          Z24          X25          Y25          Z25          X26          Y26          Z26          X27          Y27          Z27          X28          Y28          Z28          X29          Y29          Z29          X30          Y30          Z30          X31          Y31          Z31          X32          Y32          Z32          X33          Y33          Z33          X34          Y34          Z34          X35          Y35          Z35          X36          Y36          Z36          X37          Y37          Z37          X38          Y38          Z38          X39          Y39          Z39          

	151	1.25833	758.514	762.706	-250.721	766.004	760.822	-181.109	751.025	764.589	-320.332	757.270	424.375	-164.821	739.149	418.946	-323.878	719.299	65.134	-157.697	715.687	65.938	-330.109	828.418	846.449	-255.975	840.307	843.459	-145.477	816.530	849.439	-366.474	651.539	868.042	-204.271	646.013	867.753	-257.448	758.225	427.082	-108.394	734.323	419.684	-379.664	739.377	418.155	-220.891	749.807	423.120	-264.033	713.236	66.508	-120.716	703.300	67.367	-364.413	718.875	61.481	-191.264	717.521	65.625	-296.594	672.161	52.258	-149.147	669.674	47.161	-308.379	795.849	1196.321	-260.201	807.193	1094.985	-265.818	688.477	1262.307	-238.329	805.352	1195.772	-203.817	792.615	1197.618	-311.103	806.166	48.170	-144.687	804.092	44.822	-350.940	891.075	555.660	-154.005	858.506	572.991	-395.766	842.209	599.982	-118.881	844.634	614.213	-326.729	826.250	543.820	-117.214	832.425	557.421	-321.559	846.534	180.922	-136.128	694.064	174.097	-449.736	769.454	166.674	-150.109	707.190	162.013	-372.251
	152	1.26667	758.470	762.711	-250.703	765.948	760.824	-181.090	750.991	764.598	-320.316	757.225	424.399	-164.825	739.165	418.930	-323.892	719.468	65.107	-157.712	715.718	65.932	-330.143	828.385	846.446	-255.944	840.255	843.451	-145.453	816.515	849.441	-366.435	651.532	868.062	-204.276	645.995	867.764	-257.436	758.182	427.102	-108.398	734.348	419.672	-379.680	738.950	418.409	-220.850	750.047	423.086	-264.149	713.408	66.476	-120.731	703.336	67.362	-364.448	718.986	61.441	-191.277	717.609	65.562	-296.643	674.493	51.119	-149.007	669.726	47.070	-308.385	795.834	1196.345	-260.192	807.213	1094.977	-265.926	688.317	1262.491	-238.377	805.476	1195.716	-203.802	792.643	1197.653	-311.161	806.172	48.156	-144.678	804.082	44.824	-350.942	891.077	555.693	-154.038	858.448	572.973	-395.752	842.192	600.018	-118.772	844.748	614.224	-326.714	826.106	543.793	-117.133	832.583	557.529	-321.608	846.508	180.924	-136.143	694.054	174.091	-449.734	769.386	166.708	-150.154	707.253	162.032	-372.203
	153	1.27500	758.409	762.713	-250.688	765.882	760.819	-181.075	750.936	764.607	-320.302	757.193	424.424	-164.841	739.226	418.928	-323.857	719.482	65.089	-157.714	715.777	65.900	-330.188	828.340	846.435	-255.918	840.202	843.430	-145.433	816.479	849.441	-366.404	651.506	868.079	-204.292	645.965	867.787	-257.431	758.147	427.123	-108.413	734.386	419.666	-379.643	738.959	418.121	-220.393	750.551	422.669	-264.463	713.420	66.459	-120.733	703.382	67.339	-364.488	719.106	61.354	-191.281	717.620	65.517	-296.677	674.399	51.361	-149.216	669.818	46.962	-308.418	795.808	1196.348	-260.172	807.099	1094.930	-266.067	688.167	1262.607	-238.485	805.423	1195.565	-203.728	792.651	1197.695	-311.189	806.198	48.153	-144.671	804.082	44.816	-350.964	891.061	555.687	-154.062	858.385	572.955	-395.742	842.134	599.977	-118.774	844.555	614.240	-326.706	826.178	543.808	-117.039	832.599	557.521	-321.700	846.495	180.922	-136.163	694.050	174.083	-449.755	769.387	166.806	-150.320	707.227	162.034	-372.185
	154	1.28333	758.344	762.709	-250.675	765.816	760.808	-181.062	750.873	764.610	-320.289	757.173	424.445	-164.858	739.283	418.927	-323.803	719.330	65.095	-157.704	715.851	65.853	-330.213	828.289	846.420	-255.897	840.148	843.403	-145.409	816.431	849.437	-366.384	651.466	868.085	-204.320	645.930	867.803	-257.437	758.120	427.139	-108.430	734.410	419.657	-379.586	739.786	417.232	-219.828	750.582	422.493	-264.563	713.264	66.470	-120.723	703.436	67.300	-364.506	719.070	61.271	-191.267	717.598	65.536	-296.680	672.014	52.582	-149.481	669.752	46.895	-308.562	795.760	1196.332	-260.128	807.126	1094.960	-266.014	688.198	1262.471	-238.494	805.324	1195.608	-203.705	792.640	1197.705	-311.164	806.222	48.160	-144.688	804.089	44.800	-351.007	891.042	555.656	-154.057	858.331	572.935	-395.735	841.935	599.867	-118.842	844.391	614.317	-326.733	826.427	543.865	-116.952	832.454	557.346	-321.727	846.504	180.920	-136.189	694.052	174.074	-449.786	769.349	166.835	-150.457	707.154	162.063	-372.210
